<svg width="640" height="420" viewBox="0 0 640 420" fill="none" xmlns="http://www.w3.org/2000/svg">
  <defs>
    <linearGradient id="bg" x1="76" y1="54" x2="564" y2="366" gradientUnits="userSpaceOnUse">
      <stop stop-color="#1B211F"/>
      <stop offset="1" stop-color="#0D100F"/>
    </linearGradient>
    <radialGradient id="glow" cx="0" cy="0" r="1" gradientUnits="userSpaceOnUse" gradientTransform="translate(320 206) rotate(90) scale(132 180)">
      <stop stop-color="#E8DCC4" stop-opacity="0.18"/>
      <stop offset="1" stop-color="#E8DCC4" stop-opacity="0"/>
    </radialGradient>
  </defs>
  <rect x="20" y="20" width="600" height="380" rx="30" fill="url(#bg)"/>
  <rect x="20.5" y="20.5" width="599" height="379" rx="29.5" stroke="#38403D"/>
  <rect x="56" y="56" width="528" height="308" rx="22" fill="#121615" stroke="#303735"/>
  <ellipse cx="320" cy="206" rx="176" ry="116" fill="url(#glow)"/>
  <circle cx="320" cy="206" r="92" stroke="#E8DCC4" stroke-opacity="0.42" stroke-width="2"/>
  <circle cx="320" cy="206" r="58" stroke="#E8DCC4" stroke-opacity="0.26" stroke-width="2"/>
  <circle cx="320" cy="206" r="18" fill="#E8DCC4"/>
  <path d="M148 206H492" stroke="#E8DCC4" stroke-opacity="0.12"/>
  <path d="M320 98V314" stroke="#E8DCC4" stroke-opacity="0.12"/>
  <path d="M200 144C230 128 269 118 320 118C371 118 410 128 440 144" stroke="#8BE3A8" stroke-width="10" stroke-linecap="round"/>
  <path d="M192 270C228 288 270 298 320 298C370 298 412 288 448 270" stroke="#8BE3A8" stroke-width="10" stroke-linecap="round"/>
  <rect x="84" y="82" width="138" height="28" rx="14" fill="#1B211F" stroke="#38403D"/>
  <text x="153" y="100" text-anchor="middle" fill="#E8DCC4" font-family="Hanken Grotesk, Inter, sans-serif" font-size="12" font-weight="700" letter-spacing="1.2">ADAPTIVE VISION</text>
  <text x="88" y="338" fill="#7E8884" font-family="Inter, sans-serif" font-size="12" letter-spacing="1.1">SCENE BALANCE</text>
  <text x="88" y="358" fill="#F0E2C4" font-family="Hanken Grotesk, Inter, sans-serif" font-size="20" font-weight="600" letter-spacing="-0.6">Clarity tuned frame by frame</text>
</svg>
