<svg width="640" height="420" viewBox="0 0 640 420" fill="none" xmlns="http://www.w3.org/2000/svg">
  <defs>
    <linearGradient id="bg" x1="76" y1="54" x2="564" y2="366" gradientUnits="userSpaceOnUse">
      <stop stop-color="#1B211F"/>
      <stop offset="1" stop-color="#0D100F"/>
    </linearGradient>
    <radialGradient id="glow" cx="0" cy="0" r="1" gradientUnits="userSpaceOnUse" gradientTransform="translate(320 212) rotate(90) scale(112 180)">
      <stop stop-color="#D7F2F7" stop-opacity="0.22"/>
      <stop offset="1" stop-color="#D7F2F7" stop-opacity="0"/>
    </radialGradient>
  </defs>
  <rect x="20" y="20" width="600" height="380" rx="30" fill="url(#bg)"/>
  <rect x="20.5" y="20.5" width="599" height="379" rx="29.5" stroke="#38403D"/>
  <rect x="56" y="56" width="528" height="308" rx="22" fill="#121615" stroke="#303735"/>
  <ellipse cx="320" cy="212" rx="150" ry="96" fill="url(#glow)"/>
  <path d="M246 168C258 152 274 144 294 144H346C366 144 382 152 394 168" stroke="#E8DCC4" stroke-opacity="0.2" stroke-width="2"/>
  <path d="M246 256C258 272 274 280 294 280H346C366 280 382 272 394 256" stroke="#E8DCC4" stroke-opacity="0.2" stroke-width="2"/>
  <rect x="278" y="158" width="84" height="108" rx="22" fill="#171D1B" stroke="#424A46"/>
  <rect x="302" y="184" width="36" height="56" rx="18" fill="#D7F2F7"/>
  <path d="M212 198C230 182 246 176 264 176" stroke="#8BE3A8" stroke-width="8" stroke-linecap="round"/>
  <path d="M198 160C226 136 250 126 280 126" stroke="#8BE3A8" stroke-opacity="0.8" stroke-width="7" stroke-linecap="round"/>
  <path d="M428 176C446 176 462 182 480 198" stroke="#8BE3A8" stroke-width="8" stroke-linecap="round"/>
  <path d="M412 126C442 126 466 136 494 160" stroke="#8BE3A8" stroke-opacity="0.8" stroke-width="7" stroke-linecap="round"/>
  <circle cx="320" cy="212" r="8" fill="#E8DCC4"/>
</svg>
