<svg width="640" height="420" viewBox="0 0 640 420" fill="none" xmlns="http://www.w3.org/2000/svg">
  <defs>
    <linearGradient id="bg" x1="76" y1="54" x2="564" y2="366" gradientUnits="userSpaceOnUse">
      <stop stop-color="#1B211F"/>
      <stop offset="1" stop-color="#0D100F"/>
    </linearGradient>
  </defs>
  <rect x="20" y="20" width="600" height="380" rx="30" fill="url(#bg)"/>
  <rect x="20.5" y="20.5" width="599" height="379" rx="29.5" stroke="#38403D"/>
  <rect x="56" y="56" width="528" height="308" rx="22" fill="#121615" stroke="#303735"/>
  <path d="M208 254C246 216 282 196 320 192C358 188 394 198 432 226" stroke="#E8DCC4" stroke-width="4" stroke-linecap="round"/>
  <path d="M224 220C260 186 304 162 358 154" stroke="#8BE3A8" stroke-width="10" stroke-linecap="round"/>
  <circle cx="256" cy="180" r="8" fill="#8BE3A8"/>
  <circle cx="314" cy="154" r="6" fill="#8BE3A8" fill-opacity="0.75"/>
  <circle cx="372" cy="142" r="5" fill="#8BE3A8" fill-opacity="0.55"/>
  <rect x="84" y="82" width="120" height="28" rx="14" fill="#1B211F" stroke="#38403D"/>
  <text x="144" y="100" text-anchor="middle" fill="#E8DCC4" font-family="Hanken Grotesk, Inter, sans-serif" font-size="12" font-weight="700" letter-spacing="1.2">LIGHTWEIGHT</text>
  <text x="88" y="338" fill="#7E8884" font-family="Inter, sans-serif" font-size="12" letter-spacing="1.1">WEARABILITY</text>
  <text x="88" y="358" fill="#F0E2C4" font-family="Hanken Grotesk, Inter, sans-serif" font-size="20" font-weight="600" letter-spacing="-0.6">Minimal weight, all-day comfort</text>
</svg>
