<svg width="640" height="420" viewBox="0 0 640 420" fill="none" xmlns="http://www.w3.org/2000/svg">
  <defs>
    <linearGradient id="bg" x1="76" y1="54" x2="564" y2="366" gradientUnits="userSpaceOnUse">
      <stop stop-color="#1B211F"/>
      <stop offset="1" stop-color="#0D100F"/>
    </linearGradient>
  </defs>
  <rect x="20" y="20" width="600" height="380" rx="30" fill="url(#bg)"/>
  <rect x="20.5" y="20.5" width="599" height="379" rx="29.5" stroke="#38403D"/>
  <rect x="56" y="56" width="528" height="308" rx="22" fill="#121615" stroke="#303735"/>
  <rect x="196" y="128" width="248" height="126" rx="28" fill="#171D1B" stroke="#424A46"/>
  <rect x="444" y="168" width="18" height="46" rx="9" fill="#424A46"/>
  <rect x="214" y="146" width="184" height="90" rx="18" fill="#0E1211"/>
  <rect x="226" y="158" width="160" height="66" rx="14" fill="#8BE3A8"/>
  <path d="M302 170L274 204H304L292 226L346 186H316L328 170H302Z" fill="#0F1312"/>
  <path d="M168 290C212 270 264 258 320 258C376 258 428 270 472 290" stroke="#E8DCC4" stroke-opacity="0.18" stroke-width="2"/>
</svg>
